<?xml version="1.0" standalone="no"?><!DOCTYPE svg PUBLIC "-//W3C//DTD SVG 1.1//EN" "http://www.w3.org/Graphics/SVG/1.1/DTD/svg11.dtd"><svg t="1708560065584" class="icon" viewBox="0 0 1664 1024" version="1.1" xmlns="http://www.w3.org/2000/svg" p-id="2836" xmlns:xlink="http://www.w3.org/1999/xlink" width="325" height="200"><path d="M5.688889 829.155556v-142.222223L290.133333 14.222222h170.666667v672.711111h73.955556v142.222223H460.8V1009.777778h-156.444444v-180.622222H5.688889z m143.644444-142.222223h155.022223V318.577778L149.333333 686.933333z m600.177778-443.733333v537.6c0 71.111111 31.288889 98.133333 81.066667 98.133333s81.066667-27.022222 81.066666-98.133333V243.2c0-71.111111-31.288889-98.133333-81.066666-98.133333s-81.066667 27.022222-81.066667 98.133333z m-156.444444 527.644444V253.155556C593.066667 93.866667 676.977778 2.844444 830.577778 2.844444s237.511111 91.022222 237.511111 250.311112v517.688888c0 159.288889-83.911111 250.311111-237.511111 250.311112s-237.511111-91.022222-237.511111-250.311112z m539.022222 58.311112v-142.222223l284.444444-672.711111h170.666667v672.711111h73.955556v142.222223h-73.955556V1009.777778h-156.444444v-180.622222h-298.666667z m143.644444-142.222223h155.022223V318.577778l-155.022223 368.355555z" fill="#C5CBD6" p-id="2837"></path></svg>